<?xml version="1.0" standalone="no"?>
<!DOCTYPE svg PUBLIC "-//W3C//DTD SVG 20010904//EN"
 "http://www.w3.org/TR/2001/REC-SVG-20010904/DTD/svg10.dtd">
<svg version="1.0" xmlns="http://www.w3.org/2000/svg"
 width="700.000000pt" height="700.000000pt" viewBox="0 0 700.000000 700.000000"
 preserveAspectRatio="xMidYMid meet">
<metadata>
Created by potrace 1.14, written by Peter Selinger 2001-2017
</metadata>
<g transform="translate(0.000000,700.000000) scale(0.100000,-0.100000)"
fill="#000000" stroke="none">
<path d="M970 6980 c-11 -11 -20 -28 -20 -37 0 -20 5954 -5980 5982 -5989 9
-3 29 2 43 12 l25 16 -2 3000 c-3 2653 -5 3000 -18 3008 -9 6 -198 10 -461 10
-403 0 -448 -2 -460 -17 -12 -13 -14 -304 -16 -1797 -1 -980 -2 -1784 -2
-1788 -2 -15 -34 -38 -54 -38 -16 0 -538 516 -1842 1820 l-1820 1820 -668 0
c-654 0 -667 0 -687 -20z"/>
<path d="M22 6034 l-22 -15 0 -2993 c0 -2887 1 -2993 18 -3009 17 -15 63 -17
458 -17 364 0 444 2 460 14 19 14 19 45 21 1788 0 975 2 1781 2 1790 1 24 29
48 54 48 16 0 538 -516 1842 -1820 l1820 -1820 666 0 c709 0 689 -1 704 49 7
21 -286 317 -2981 3012 -1644 1644 -2996 2989 -3004 2989 -9 0 -26 -7 -38 -16z"/>
</g>
</svg>
