<svg width="32" height="32" viewBox="0 0 32 32" fill="none" xmlns="http://www.w3.org/2000/svg">
  <title>Arduino Logo</title>
  <desc>
    Das Symbol des Arduino-Logos zeigt einen 'Infinity Loop' oder ein 'Twisted Infinity'-Symbol, das eine liegende Acht darstellt und die Unendlichkeit, Wachstum und die endlosen Möglichkeiten symbolisiert, die mit Arduino und seiner Gemeinschaft verbunden sind. Es ist üblicherweise in einem lebhaften Blau dargestellt, was Technologie, Vertrauen und Zuverlässigkeit symbolisiert.
  </desc>
  <metadata>
    <rdf:RDF xmlns:rdf="http://www.w3.org/1999/02/22-rdf-syntax-ns#"
             xmlns:dc="http://purl.org/dc/elements/1.1/">
      <rdf:Description rdf:about="">
        <dc:creator>Tim Niedermeier - https://niedermeier.dev</dc:creator>
      </rdf:Description>
    </rdf:RDF>
  </metadata>
  <rect width="32" height="32" fill="#0D9BA1"/>
  <path d="M21.5834 21.5C21.3081 21.5 21.0263 21.4792 20.7492 21.4358C18.4257 21.0869 16.8721 19.3312 16.0019 17.9816C15.1289 19.3312 13.5754 21.0886 11.253 21.437C10.9766 21.4786 10.6978 21.4995 10.4186 21.4995C8.9741 21.4995 7.61802 20.9338 6.59798 19.9068C5.56823 18.8713 5 17.4817 5 15.9999C5 14.5163 5.56821 13.1286 6.59948 12.0912C7.61853 11.064 8.97561 10.5 10.4208 10.5C10.6962 10.5 10.9765 10.5208 11.2527 10.5624C13.5752 10.9109 15.1287 12.6668 16.0017 14.0166C16.8721 12.6668 18.4256 10.9114 20.7489 10.5624C21.026 10.5206 21.3063 10.5 21.5818 10.5C23.0263 10.5 24.3833 11.0654 25.4023 12.0912C26.4331 13.1286 27 14.5163 27 15.9999C27 17.4817 26.4345 18.8713 25.4038 19.9068C24.3829 20.9338 23.028 21.5 21.5834 21.5ZM17.0306 16.0005C17.4844 16.9097 18.823 19.1784 21.011 19.5082C21.2025 19.5359 21.3953 19.5513 21.5832 19.5513C23.5486 19.5513 25.1485 17.9586 25.1485 15.9999C25.1485 14.0412 23.549 12.4486 21.5818 12.4486C21.3939 12.4486 21.2012 12.4627 21.0114 12.4917C18.823 12.8206 17.4844 15.0894 17.0306 16.0005ZM10.4207 12.4491C8.45269 12.4491 6.85255 14.0417 6.85255 16.0004C6.85255 17.9588 8.45203 19.5518 10.4183 19.5518C10.607 19.5518 10.7999 19.5364 10.9914 19.5087C13.1794 19.179 14.5176 16.9115 14.9716 16.001C14.5189 15.0918 13.1794 12.8211 10.9914 12.4933C10.8021 12.4632 10.6088 12.4491 10.4207 12.4491Z" fill="white"/>
  <path d="M8.92578 15.4654H12.1798V16.5686H8.92578V15.4654ZM23.0423 15.4654H21.9407V14.3047H20.8885V15.4654H19.7874V16.5686H20.8885V17.7292H21.9407V16.5686H23.0423V15.4654Z" fill="white"/>
</svg>


