<svg width="32" height="32" viewBox="0 0 32 32" fill="none" xmlns="http://www.w3.org/2000/svg">
  <title>Figma Logo</title>
  <desc>
    Das Symbol von Figma zeigt ein stilisiertes, abstraktes „F“, das für die Marke und ihre Kernwerte steht: Innovation, Kreativität und Effizienz in Design und Benutzererfahrung. Das minimalistische und moderne Design spiegelt die benutzerfreundliche und effiziente Schnittstelle von Figma wider, die es zu einem bevorzugten Werkzeug für Designer weltweit macht.
  </desc>
  <metadata>
    <rdf:RDF xmlns:rdf="http://www.w3.org/1999/02/22-rdf-syntax-ns#"
             xmlns:dc="http://purl.org/dc/elements/1.1/">
      <rdf:Description rdf:about="">
        <dc:creator>Tim Niedermeier - https://niedermeier.dev</dc:creator>
      </rdf:Description>
    </rdf:RDF>
  </metadata>
  <rect width="32" height="32" fill="#2F323C"/>
  <path d="M16 16C16 14.067 17.567 12.5 19.5 12.5C21.433 12.5 23 14.067 23 16C23 17.933 21.433 19.5 19.5 19.5C17.567 19.5 16 17.933 16 16Z" fill="#1ABCFE"/>
  <path d="M16 5.5H19.5C21.433 5.5 23 7.067 23 9C23 10.933 21.433 12.5 19.5 12.5H16V5.5Z" fill="#FF7262"/>
  <path d="M9 16C9 14.067 10.567 12.5 12.5 12.5H16V19.5H12.5C10.567 19.5 9 17.933 9 16Z" fill="#A259FF"/>
  <path d="M9 23C9 21.067 10.567 19.5 12.5 19.5H16V23C16 24.933 14.433 26.5 12.5 26.5C10.567 26.5 9 24.933 9 23Z" fill="#0ACF83"/>
  <path d="M9 9C9 7.067 10.567 5.5 12.5 5.5H16V12.5H12.5C10.567 12.5 9 10.933 9 9Z" fill="#F24E1E"/>
</svg>
