<svg width="32" height="32" viewBox="0 0 32 32" fill="none" xmlns="http://www.w3.org/2000/svg">
  <title>GitHub Logo</title>
  <desc>
    Ein stilisiertes, abstraktes GitHub-Logo, das die Gemeinschaft und Zusammenarbeit in der Softwareentwicklung symbolisiert. Das Logo zeigt eine vereinfachte, geometrische Interpretation der bekannten Octocat-Silhouette auf einem violetten Hintergrund, was die Kreativität und Vielfalt der Projekte auf GitHub widerspiegelt. Illustriert von Tim Niedermeier, unterstreicht es die Bedeutung von Open Source und gemeinschaftlicher Entwicklung.
  </desc>
  <metadata>
    <rdf:RDF xmlns:rdf="http://www.w3.org/1999/02/22-rdf-syntax-ns#"
             xmlns:dc="http://purl.org/dc/elements/1.1/">
      <rdf:Description rdf:about="">
        <dc:creator>Tim Niedermeier - https://niedermeier.dev</dc:creator>
      </rdf:Description>
    </rdf:RDF>
  </metadata>
<rect width="32" height="32" fill="#6E40C9"/>
<path d="M17.7995 20.6006C18.1995 20.5006 18.5995 20.5006 18.9995 20.4006C20.1995 20.1006 21.1995 19.5006 21.6995 18.4006C22.2995 17.2006 22.3995 16.0006 22.0995 14.7006C21.9995 14.1006 21.6995 13.7006 21.2995 13.2006C21.1995 13.1006 21.1995 13.0006 21.1995 12.9006C21.3995 12.1006 21.3995 11.4006 21.0995 10.6006C21.0995 10.5006 20.9995 10.4006 20.7995 10.4006C20.2995 10.4006 19.8995 10.6006 19.4995 10.8006C19.0995 11.0006 18.7995 11.2006 18.4995 11.4006C18.3995 11.5006 18.2995 11.5006 18.1995 11.5006C16.5995 11.1006 15.0995 11.1006 13.4995 11.5006C13.3995 11.5006 13.2995 11.5006 13.1995 11.4006C12.4995 11.0006 11.8995 10.6006 11.0995 10.5006C10.5995 10.4006 10.5995 10.4006 10.4995 10.9006C10.2995 11.6006 10.2995 12.3006 10.4995 13.0006V13.2006C9.59955 14.2006 9.39955 15.5006 9.59955 16.7006C9.69955 17.1006 9.69955 17.4006 9.79955 17.8006C10.2995 19.2006 11.2995 20.0006 12.7995 20.4006C13.1995 20.5006 13.5995 20.6006 14.0995 20.7006C13.7995 21.0006 13.5995 21.5006 13.4995 21.9006C13.4995 22.0006 13.3995 22.0006 13.3995 22.0006C12.3995 22.4006 11.2995 22.3006 10.5995 21.2006C10.2995 20.7006 9.89955 20.3006 9.19955 20.2006H8.69955C8.49955 20.2006 8.49955 20.4006 8.59955 20.5006L8.79955 20.7006C9.29955 21.0006 9.69955 21.5006 9.89955 22.1006C10.2995 23.0006 10.9995 23.4006 11.9995 23.5006C12.3995 23.5006 12.8995 23.5006 13.3995 23.4006V25.3006C13.3995 25.6006 13.0995 25.8006 12.6995 25.7006C11.8995 25.4006 11.0995 25.0006 10.2995 24.5006C7.29955 22.4006 5.69955 19.5006 5.89955 15.8006C6.09955 11.2006 9.49955 7.50062 13.9995 6.60062C19.1995 5.60062 24.1995 8.80062 25.5995 13.9006C26.8995 18.9006 23.9995 24.1006 19.1995 25.7006C18.6995 25.9006 18.3995 25.7006 18.3995 25.1006V22.7006C18.4995 21.9006 18.3995 21.2006 17.7995 20.6006Z" fill="white"/>
</svg>
