<svg width="32" height="32" viewBox="0 0 32 32" fill="none" xmlns="http://www.w3.org/2000/svg">
<title>React Logo</title>
  <desc>
    Angepasstes React-Logo in Weiß auf React-Blau-Hintergrund, inspiriert von der Darstellung in VS Code, um eine moderne und ansprechende Visualisierung der React-Technologie zu bieten. Diese Farbkombination unterstreicht die Dynamik und Flexibilität von React in der Entwicklung von Benutzeroberflächen. Illustriert von Tim Niedermeier.
  </desc>
  <metadata>
    <rdf:RDF xmlns:rdf="http://www.w3.org/1999/02/22-rdf-syntax-ns#"
             xmlns:dc="http://purl.org/dc/elements/1.1/">
      <rdf:Description rdf:about="">
        <dc:creator>Tim Niedermeier - https://niedermeier.dev</dc:creator>
      </rdf:Description>
    </rdf:RDF>
  </metadata>
  <rect width="32" height="32" fill="#61DAFB"/>
<path d="M26 15.9075C26 14.5826 24.3408 13.3269 21.797 12.5483C22.384 9.95557 22.1231 7.89278 20.9735 7.23237C20.7085 7.07746 20.3987 7.00408 20.0603 7.00408V7.91317C20.2479 7.91317 20.3987 7.94986 20.5251 8.01916C21.0795 8.33714 21.32 9.5479 21.1325 11.1052C21.0876 11.4884 21.0143 11.892 20.9246 12.3037C20.1256 12.108 19.2532 11.9572 18.3359 11.8594C17.7856 11.1052 17.2148 10.4203 16.64 9.82104C17.969 8.58581 19.2165 7.90909 20.0644 7.90909V7C18.9433 7 17.4757 7.79902 15.9918 9.18508C14.5079 7.80718 13.0404 7.01631 11.9193 7.01631V7.9254C12.7631 7.9254 14.0147 8.59804 15.3437 9.82511C14.7729 10.4244 14.2022 11.1052 13.66 11.8594C12.7387 11.9572 11.8663 12.108 11.0673 12.3078C10.9735 11.9001 10.9042 11.5047 10.8553 11.1256C10.6637 9.56828 10.9001 8.35752 11.4505 8.03547C11.5728 7.96209 11.7318 7.92947 11.9193 7.92947V7.02038C11.5768 7.02038 11.267 7.09376 10.998 7.24868C9.85243 7.90909 9.5956 9.96779 10.1867 12.5524C7.65104 13.3351 6 14.5866 6 15.9075C6 17.2324 7.65919 18.488 10.203 19.2666C9.61598 21.8594 9.87689 23.9221 11.0265 24.5826C11.2915 24.7375 11.6013 24.8108 11.9437 24.8108C13.0648 24.8108 14.5324 24.0118 16.0163 22.6258C17.5002 24.0037 18.9678 24.7945 20.0889 24.7945C20.4313 24.7945 20.7411 24.7212 21.0102 24.5662C22.1557 23.9058 22.4126 21.8471 21.8214 19.2625C24.349 18.4839 26 17.2283 26 15.9075ZM20.6922 13.1883C20.5414 13.7142 20.3539 14.2564 20.1419 14.7986C19.9747 14.4725 19.7994 14.1464 19.6078 13.8202C19.4203 13.4941 19.2205 13.1761 19.0208 12.8663C19.5997 12.9519 20.1582 13.0579 20.6922 13.1883ZM18.8251 17.53C18.5071 18.0803 18.181 18.6021 17.8426 19.0872C17.2352 19.1402 16.6196 19.1688 16 19.1688C15.3844 19.1688 14.7689 19.1402 14.1655 19.0913C13.8272 18.6062 13.4969 18.0885 13.179 17.5422C12.8691 17.0082 12.5879 16.466 12.331 15.9197C12.5838 15.3734 12.8691 14.8272 13.1749 14.2931C13.4929 13.7428 13.819 13.221 14.1574 12.7358C14.7648 12.6828 15.3804 12.6543 16 12.6543C16.6156 12.6543 17.2311 12.6828 17.8345 12.7318C18.1728 13.2169 18.5031 13.7346 18.821 14.2809C19.1309 14.8149 19.4121 15.3571 19.669 15.9034C19.4121 16.4497 19.1309 16.9959 18.8251 17.53ZM20.1419 17C20.362 17.5463 20.5495 18.0925 20.7044 18.6225C20.1704 18.753 19.6078 18.863 19.0249 18.9486C19.2246 18.6347 19.4244 18.3127 19.6119 17.9825C19.7994 17.6563 19.9747 17.3261 20.1419 17ZM16.0082 21.3498C15.629 20.9584 15.2499 20.5222 14.8748 20.0453C15.2417 20.0616 15.6168 20.0738 15.9959 20.0738C16.3791 20.0738 16.7583 20.0656 17.1292 20.0453C16.7623 20.5222 16.3832 20.9584 16.0082 21.3498ZM12.9751 18.9486C12.3962 18.863 11.8377 18.757 11.3037 18.6266C11.4545 18.1007 11.6421 17.5585 11.8541 17.0163C12.0212 17.3424 12.1965 17.6686 12.3881 17.9947C12.5797 18.3208 12.7754 18.6388 12.9751 18.9486ZM15.9878 10.4651C16.3669 10.8565 16.746 11.2927 17.1211 11.7697C16.7542 11.7534 16.3791 11.7411 16 11.7411C15.6168 11.7411 15.2377 11.7493 14.8667 11.7697C15.2336 11.2927 15.6127 10.8565 15.9878 10.4651ZM12.9711 12.8663C12.7713 13.1802 12.5715 13.5022 12.384 13.8325C12.1965 14.1586 12.0212 14.4847 11.8541 14.8108C11.6339 14.2646 11.4464 13.7183 11.2915 13.1883C11.8255 13.062 12.3881 12.9519 12.9711 12.8663ZM9.2817 17.9702C7.83857 17.3547 6.90501 16.5475 6.90501 15.9075C6.90501 15.2674 7.83857 14.4562 9.2817 13.8447C9.63229 13.6938 10.0155 13.5593 10.4109 13.4329C10.6433 14.232 10.949 15.0636 11.3282 15.9156C10.9531 16.7636 10.6514 17.5911 10.4232 18.3861C10.0196 18.2597 9.63636 18.1211 9.2817 17.9702ZM11.4749 23.7958C10.9205 23.4778 10.68 22.267 10.8675 20.7097C10.9124 20.3265 10.9857 19.923 11.0754 19.5112C11.8744 19.7069 12.7468 19.8577 13.6641 19.9556C14.2144 20.7097 14.7852 21.3946 15.36 21.9939C14.031 23.2291 12.7835 23.9058 11.9356 23.9058C11.7521 23.9018 11.5972 23.8651 11.4749 23.7958ZM21.1447 20.6894C21.3363 22.2466 21.0999 23.4574 20.5495 23.7795C20.4272 23.8528 20.2682 23.8854 20.0807 23.8854C19.2369 23.8854 17.9853 23.2128 16.6563 21.9857C17.2271 21.3865 17.7978 20.7057 18.34 19.9515C19.2613 19.8537 20.1337 19.7028 20.9327 19.5031C21.0265 19.9148 21.0999 20.3102 21.1447 20.6894ZM22.7142 17.9702C22.3636 18.1211 21.9804 18.2556 21.585 18.382C21.3526 17.583 21.0469 16.7513 20.6678 15.8993C21.0428 15.0514 21.3445 14.2238 21.5728 13.4289C21.9764 13.5552 22.3596 13.6938 22.7183 13.8447C24.1614 14.4603 25.095 15.2674 25.095 15.9075C25.0909 16.5475 24.1574 17.3587 22.7142 17.9702Z" fill="white"/>
<path d="M15.9959 17.7705C17.0248 17.7705 17.8589 16.9364 17.8589 15.9075C17.8589 14.8785 17.0248 14.0444 15.9959 14.0444C14.967 14.0444 14.1329 14.8785 14.1329 15.9075C14.1329 16.9364 14.967 17.7705 15.9959 17.7705Z" fill="white"/>
</svg>
