<svg width="32" height="32" viewBox="0 0 32 32" fill="none" xmlns="http://www.w3.org/2000/svg">
 <title>SCSS Logo</title>
  <desc>
    Eine invertierte Darstellung des offiziellen SCSS-Logos, inspiriert von der Darstellung in VS Code, mit dem SCSS-Symbol in Weiß auf einem charakteristischen pinken Hintergrund. Diese Anpassung unterstreicht die dynamische und stilvolle Natur von SCSS in der modernen Webentwicklung. Illustriert von Tim Niedermeier, bietet es eine frische Perspektive auf das traditionelle SCSS-Logo.
  </desc>
  <metadata>
    <rdf:RDF xmlns:rdf="http://www.w3.org/1999/02/22-rdf-syntax-ns#"
             xmlns:dc="http://purl.org/dc/elements/1.1/">
      <rdf:Description rdf:about="">
        <dc:creator>Tim Niedermeier - https://niedermeier.dev</dc:creator>
      </rdf:Description>
    </rdf:RDF>
  </metadata>
<rect width="32" height="32" fill="#CF6499"/>
<path d="M18.0009 17.2985C16.9009 17.9985 15.6009 18.7985 14.5009 19.4985C14.9009 20.3985 14.9009 21.2985 14.6009 22.1985C14.1009 23.7985 12.9009 24.6985 11.4009 24.8985C11.0009 24.9985 10.6009 24.8985 10.3009 24.7985C9.90092 24.6985 9.70092 24.3985 9.60092 24.0985C9.20092 23.1985 9.30092 22.3985 9.90092 21.6985C10.3009 21.2985 10.7009 20.7985 11.2009 20.4985C11.7009 20.0985 12.4009 19.7985 13.0009 19.3985C13.1009 19.2985 13.2009 19.2985 13.4009 19.1985C13.1009 18.9985 13.0009 18.7985 12.8009 18.7985C12.0009 18.2985 11.2009 17.6985 10.5009 16.9985C10.1009 16.5985 9.70092 16.1985 9.40092 15.6985C8.50092 14.9985 8.40092 13.9985 8.90092 13.0985C9.30092 12.0985 10.0009 11.2985 10.7009 10.5985C12.3009 9.19852 14.1009 8.19852 16.1009 7.49852C17.5009 6.99852 18.9009 6.79852 20.3009 6.99852C20.7009 7.19852 21.3009 7.29852 21.7009 7.49852C23.2009 8.09852 23.8009 9.29852 23.3009 10.8985C22.9009 12.1985 22.1009 13.2985 20.9009 13.9985C19.3009 14.9985 17.7009 15.3985 15.8009 15.0985C15.2009 14.9985 14.7009 14.6985 14.2009 14.1985C14.1009 13.9985 14.0009 13.7985 13.9009 13.6985C13.9009 13.6985 13.9009 13.5985 14.0009 13.4985C14.0009 13.4985 14.1009 13.4985 14.2009 13.5985C15.0009 14.3985 15.9009 14.4985 16.8009 14.2985C18.5009 13.9985 20.0009 13.3985 21.1009 12.0985C21.5009 11.5985 21.9009 10.9985 22.1009 10.2985C22.3009 9.49852 21.9009 8.89852 21.2009 8.49852C20.4009 8.09852 19.6009 8.09852 18.8009 8.19852C16.8009 8.49852 15.0009 9.29852 13.4009 10.2985C12.5009 10.7985 11.7009 11.3985 11.1009 12.1985C10.8009 12.5985 10.6009 12.9985 10.4009 13.3985C10.1009 14.1985 10.2009 14.9985 10.8009 15.5985C11.2009 15.9985 11.6009 16.3985 12.0009 16.6985C12.6009 17.1985 13.3009 17.7985 13.9009 18.2985C14.0009 18.2985 14.1009 18.3985 14.2009 18.2985C14.5009 18.0985 14.7009 17.9985 15.0009 17.8985C15.9009 17.3985 16.8009 16.9985 17.8009 16.7985C17.8009 17.1985 17.9009 17.1985 18.0009 17.2985C18.0009 17.1985 18.0009 17.1985 18.0009 17.2985ZM13.7009 19.7985C12.8009 20.2985 12.1009 20.7985 11.4009 21.4985C11.0009 21.8985 10.8009 22.2985 10.7009 22.7985C10.6009 23.3985 11.0009 23.6985 11.6009 23.5985C12.4009 23.3985 13.0009 22.8985 13.4009 22.2985C13.9009 21.4985 13.9009 20.7985 13.7009 19.7985Z" fill="white"/>
</svg>
